<svg id="Capa_1" enable-background="new 0 0 511.96 511.96" height="512" viewBox="0 0 511.96 511.96" width="512" xmlns="http://www.w3.org/2000/svg"><g><g><path d="m474.888 325.9c-19.84 101.87-109.64 178.74-217.35 178.56-122.67-.2-221.07-99.09-220.7-221.76.36-118.52 94-215.08 211.37-220.15l-6.65-25.73c-1.44-4.11-1.62-8.14-.84-11.84 1.36-6.36 5.56-11.72 11.09-14.78 6.06-3.35 13.71-3.93 20.95-.04l105.82 78.4c8.67 6.92 15.93 16.21 15.9 26.7-.04 10.41-6.94 19.24-15.9 26.49l-105.82 78.39c-7.1 3.82-14.59 3.34-20.59.16-5.62-2.97-9.93-8.31-11.37-14.68-.01-.01-.01-.01-.01-.01-.86-3.77-.71-7.9.77-12.12l6.84-26.21c-59.89 4.83-106.99 54.97-106.99 116.11 0 64.89 53.04 117.39 118.14 116.49 49.23-.67 91.32-32.33 107.63-76.2 2.83-7.62 10.02-12.73 18.15-12.73h43.14c1.93-12.33 2.75-24.85 2.46-37.21-.2-8.28 6.36-15.15 14.64-15.35s15.15 6.36 15.35 14.64c.3 12.59-.42 25.33-2.14 37.92h3.74c7.9 0 13.88 7.2 12.37 14.95z" fill="#bbec6c"/><g fill="#a2e62e"><path d="m141.405 283.391c0-61.141 47.1-111.277 106.995-116.116l5.119-19.609c.945-3.619-1.887-7.124-5.623-6.963-92.673 3.991-133.842 81.999-133.842 141.561 0 64.888 47.083 118.514 112.177 117.62 5.061-.07 10.042-.484 14.932-1.188-56.409-8.121-99.758-56.649-99.758-115.305z"/><path d="m462.52 310.95h-3.741c1.717-12.592 2.441-25.325 2.141-37.92-.197-8.281-7.071-14.837-15.352-14.639-8.282.197-14.836 7.071-14.639 15.353.294 12.357-.534 24.875-2.461 37.206h.736c7.897 0 13.877 7.197 12.367 14.948-18.791 96.478-100.324 170.516-200.402 177.937 5.402.4 10.858.616 16.365.625 107.719.178 197.512-76.689 217.354-178.562 1.509-7.751-4.471-14.948-12.368-14.948z"/></g><g><path d="m388.525 284.73c-.039.002-.076.005-.114.007-8.271.464-15.353-5.865-15.817-14.136-1.046-18.633-7.161-36.555-17.685-51.828-4.701-6.821-2.981-16.162 3.841-20.862s16.162-2.98 20.862 3.841c13.65 19.809 21.58 43.036 22.934 67.169.464 8.232-5.806 15.287-14.021 15.809z" fill="#99e6fc"/></g><g><path d="m435.117 222.136c-5.578-.662-10.553-4.444-12.461-10.122-2.135-6.352-4.608-12.674-7.353-18.792-3.391-7.558-.013-16.435 7.545-19.826 7.559-3.391 16.434-.013 19.826 7.545 3.143 7.005 5.976 14.245 8.419 21.518 2.639 7.853-1.589 16.358-9.441 18.996-2.175.73-4.4.934-6.535.681z" fill="#c8effe"/></g><path d="m402.547 268.92c-1.354-24.134-9.285-47.36-22.934-67.169-4.7-6.821-14.041-8.54-20.862-3.841-2.752 1.896-4.657 4.551-5.662 7.487 5.009-.238 10.023 2.024 13.077 6.456 13.65 19.809 21.58 43.036 22.934 67.169.112 2.001-.18 3.93-.794 5.715.035-.002.07.001.105 0 .038-.002.075-.004.114-.007 8.215-.522 14.485-7.577 14.022-15.81z" fill="#62dbfb"/><path d="m451.093 202.458c-2.444-7.273-5.277-14.513-8.42-21.518-3.392-7.558-12.267-10.936-19.826-7.545-3.321 1.49-5.833 4.04-7.321 7.072 5.299.41 10.214 3.627 12.543 8.818 3.143 7.005 5.976 14.245 8.419 21.518 1.309 3.896.925 7.952-.751 11.373 1.945.149 3.948-.061 5.914-.721 7.854-2.639 12.081-11.144 9.442-18.997z" fill="#99e6fc"/><path d="m378.581 88.555-105.823-78.39c-7.238-3.895-14.876-3.298-20.933.048-1.565.911-3.332 1.856-6.149 4.941l.005.004c-2.415 2.767-4.172 6.123-4.963 9.823.05.12.07.18.07.18s5.41-4.81 17.12-.48c.415.154.794.279 1.152.388l85.705 63.487c8.666 6.922 15.928 16.219 15.892 26.704-.036 10.414-6.94 19.238-15.892 26.491l-86.855 64.339c-.001 0-.001 0-.002.001-11.37 4.22-16.81-.21-17.11-.47.935 4.135 3.084 7.831 6.011 10.732 2.141 1.716.497 1.049 5.374 3.937 5.998 3.172 13.479 3.67 20.574-.148l105.824-78.391c8.952-7.253 15.856-16.076 15.892-26.491.036-10.486-7.225-19.783-15.892-26.705z" fill="#a2e62e"/></g><g><path d="m354.495 191.734c-4.949 3.41-8.274 8.543-9.362 14.454s.19 11.892 3.601 16.84c9.742 14.139 15.404 30.735 16.373 47.994.671 11.961 10.618 21.241 22.421 21.241 12.151.212 23.316-11.01 22.508-23.763-1.432-25.509-9.816-50.062-24.247-71.005-7.039-10.215-21.076-12.8-31.294-5.761zm33.496 85.514c-4.135.242-7.677-2.939-7.908-7.068-1.123-20.009-7.692-39.257-18.998-55.664-1.137-1.649-1.563-3.643-1.2-5.613s1.471-3.681 3.121-4.817c3.404-2.347 8.085-1.484 10.431 1.919 12.868 18.674 20.345 40.575 21.622 63.334.23 4.099-2.915 7.645-7.01 7.905"/><path d="m408.459 196.291c2.645 5.895 5.029 11.988 7.087 18.111 2.74 8.152 10.002 14.089 18.53 15.162.052.007.105.013.158.019 3.321.394 6.62.051 9.808-1.02 5.697-1.914 10.307-5.932 12.982-11.314s3.094-11.484 1.18-17.18c-2.519-7.499-5.442-14.968-8.687-22.201-5.079-11.318-18.419-16.395-29.739-11.317-11.32 5.08-16.397 18.421-11.319 29.74zm17.458-16.053c2.473-1.33 7.838-.515 9.914 3.772 3.045 6.788 5.789 13.799 8.153 20.838.638 1.899.499 3.932-.393 5.726-1.198 1.912-3.471 4.489-7.643 4.108-2.846-.358-5.269-2.339-6.183-5.057-2.212-6.583-4.776-13.135-7.62-19.473-1.693-3.774-.001-8.221 3.772-9.914z"/><path d="m54.433 196.5c3.75 1.756 8.216.142 9.974-3.609 16.328-34.845 41.841-64.712 73.781-86.372 32.675-22.158 70.83-34.772 110.339-36.48 2.261-.098 4.357-1.211 5.704-3.03s1.8-4.148 1.234-6.339l-6.647-25.73c-.052-.202-.113-.402-.182-.599-2.417-6.915.624-12.711 4.275-15.829 3.568-3.047 9.568-5.116 15.858-1.968l105.236 77.956c4.907 3.938 12.999 11.794 12.968 20.734-.023 6.666-4.394 13.592-12.99 20.589l-105.214 77.94c-6.288 3.148-12.29 1.079-15.858-1.968-3.652-3.118-6.693-8.914-4.275-15.829.067-.191.126-.385.177-.581l6.844-26.215s0 0 0-.001l6.979-26.731c1.046-4.008-1.354-8.105-5.362-9.151-4.009-1.049-8.105 1.355-9.151 5.362l-5.666 21.702c-28.907 3.596-55.554 17.234-75.515 38.77-21.304 22.984-33.037 52.912-33.037 84.27 0 33.445 13.115 64.8 36.928 88.288 23.392 23.073 54.248 35.716 87.059 35.716 27.24.128 56.276-9.938 77.929-27.714 3.216-2.61 3.707-7.334 1.096-10.55-2.61-3.216-7.333-3.707-10.55-1.096-19.206 15.592-42.348 24.012-66.923 24.349-29.424.419-57.149-10.742-78.078-31.384-20.933-20.647-32.461-48.209-32.461-77.609 0-27.564 10.313-53.871 29.038-74.073 16.163-17.438 37.305-28.989 60.391-33.173l-3.962 15.177c-3.883 11.5-.449 23.982 8.8 31.88 9.331 7.967 22.338 9.358 33.142 3.544.317-.17.621-.364.91-.578l105.823-78.391c.087-.064.173-.13.257-.199 12.35-10.005 18.632-20.87 18.671-32.293.039-11.512-6.431-22.782-18.711-32.59-.071-.057-.143-.112-.216-.166l-105.826-78.391c-.289-.214-.593-.407-.91-.578-10.803-5.813-23.812-4.422-33.142 3.544-9.247 7.895-12.681 20.372-8.804 31.869l4.305 16.664c-38.997 3.263-76.47 16.474-108.903 38.468-34.173 23.174-61.472 55.133-78.945 92.422-1.757 3.75-.141 8.215 3.61 9.973z"/><path d="m478.041 310.774c-2.828-3.432-6.647-5.785-10.875-6.784 1.077-10.394 1.497-20.834 1.251-31.138-.143-6.008-2.617-11.602-6.967-15.749-4.35-4.148-10.06-6.355-16.062-6.21-6.008.143-11.601 2.617-15.749 6.967s-6.353 10.054-6.21 16.062c.233 9.798-.266 19.703-1.484 29.528h-36.615c-11.147 0-21.269 7.08-25.187 17.618-2.793 7.514-6.441 14.75-10.842 21.506-2.261 3.471-1.28 8.117 2.19 10.378 3.47 2.26 8.117 1.28 10.378-2.19 5.005-7.684 9.155-15.916 12.333-24.467 1.745-4.692 6.216-7.845 11.127-7.845h43.136c3.695 0 6.84-2.691 7.41-6.342 1.996-12.773 2.853-25.741 2.549-38.543-.048-2.002.687-3.904 2.07-5.354 2.183-2.182 6.741-3.566 10.603-.252 1.45 1.383 2.275 3.247 2.322 5.25.29 12.149-.408 24.506-2.074 36.729-.292 2.146.357 4.313 1.781 5.945 3.566 5.205 14.476-1.351 14.396 8.582-19.474 100.003-107.599 172.496-209.619 172.495-.118 0-.239 0-.357 0-57.313-.095-111-22.375-151.171-62.735-40.178-40.368-62.209-94.17-62.035-151.498.06-19.672 2.793-39.149 8.125-57.891 1.133-3.984-1.178-8.133-5.162-9.266-3.986-1.132-8.133 1.177-9.266 5.162-5.707 20.062-8.633 40.905-8.697 61.949-.187 61.338 23.396 118.916 66.403 162.125 43 43.203 100.454 67.052 161.778 67.154h.382c109.175-.009 203.499-77.597 224.345-184.628 1.148-5.886-.387-11.921-4.207-16.558z"/></g></g></svg>